<svg width="144" height="139" viewBox="0 0 144 139" fill="none" xmlns="http://www.w3.org/2000/svg">
<path fill-rule="evenodd" clip-rule="evenodd" d="M72 1.64194C45.5704 1.64194 24.1368 22.3257 24.1368 47.8431C24.1368 68.2555 37.8506 85.574 56.8687 91.6824C59.2605 92.1103 60.1392 90.6801 60.1392 89.4596C60.1392 88.3583 60.0941 84.7183 60.0739 80.8589C46.7573 83.653 43.9481 75.4075 43.9481 75.4075C41.7713 70.0669 38.6337 68.6465 38.6337 68.6465C34.2912 65.7796 38.9599 65.8382 38.9599 65.8382C43.7669 66.164 46.2982 70.6001 46.2982 70.6001C50.5665 77.6629 57.4954 75.6203 60.2258 74.44C60.6566 71.4536 61.8964 69.4143 63.2656 68.2609C52.6342 67.0935 41.4585 63.131 41.4585 45.428C41.4585 40.3838 43.3282 36.2628 46.3905 33.0266C45.8933 31.8624 44.2553 27.1626 46.854 20.799C46.854 20.799 50.8725 19.5588 60.0165 25.5369C63.8359 24.5128 67.9308 23.9992 71.9978 23.9818C76.0658 24.0003 80.1629 24.514 83.988 25.5369C93.1229 19.5599 97.1369 20.8 97.1369 20.8C99.7425 27.1636 98.1045 31.8624 97.6073 33.0277C100.676 36.2616 102.532 40.3838 102.532 45.4292C102.532 63.1733 91.3354 67.0806 80.6772 68.2229C82.3939 69.6564 83.9239 72.469 83.9239 76.7801C83.9239 82.9613 83.8699 87.936 83.8699 89.4574C83.8699 90.6844 84.7317 92.1266 87.1572 91.6727C106.165 85.5567 119.861 68.2447 119.861 47.8388C119.863 22.3269 98.4341 1.64194 72 1.64194Z" fill="white"/>
<path d="M42.2662 67.9753C42.1594 68.2055 41.7847 68.274 41.4449 68.1164C41.0962 67.9645 40.9027 67.6528 41.0153 67.4214C41.1165 67.187 41.4922 67.1208 41.8399 67.2781C42.1886 67.4302 42.3866 67.7451 42.2674 67.9753H42.2662ZM44.2046 70.0646C43.9762 70.2678 43.5297 70.1733 43.2259 69.8496C42.9132 69.5271 42.8546 69.0961 43.0864 68.8897C43.3204 68.6855 43.7536 68.7812 44.0652 69.1037C44.3801 69.4293 44.442 69.8561 44.2036 70.0636L44.2046 70.0646ZM46.0913 72.723C45.7987 72.9207 45.3184 72.736 45.0225 72.3245C44.7278 71.9151 44.7278 71.4232 45.0281 71.2244C45.3252 71.0268 45.7977 71.2049 46.0968 71.6121C46.3917 72.0303 46.3917 72.5244 46.0913 72.7241V72.723ZM48.6765 75.2945C48.4144 75.5736 47.8553 75.4987 47.4468 75.1176C47.0284 74.7451 46.9125 74.2162 47.1746 73.9371C47.4413 73.6581 48.0026 73.7362 48.4144 74.1141C48.8306 74.4855 48.9566 75.0155 48.6765 75.2935V75.2945ZM52.2449 76.7866C52.128 77.1493 51.5902 77.3133 51.048 77.1602C50.5058 77.0017 50.1525 76.5781 50.2605 76.2132C50.3729 75.8483 50.9153 75.6779 51.4608 75.8419C52.0008 75.9982 52.3553 76.4174 52.2439 76.7866H52.2449ZM56.16 77.0636C56.1746 77.4437 55.7145 77.7607 55.1453 77.7672C54.5738 77.7803 54.1102 77.4718 54.1036 77.0962C54.1036 76.7118 54.5536 76.399 55.1249 76.3903C55.6942 76.3793 56.16 76.6856 56.16 77.0636ZM59.8049 76.4652C59.8725 76.8365 59.4787 77.2188 58.9128 77.3199C58.3572 77.4197 57.8441 77.1895 57.7721 76.8203C57.7046 76.4402 58.1062 76.0601 58.6608 75.9602C59.2267 75.8647 59.7329 76.0884 59.8049 76.4662V76.4652Z" fill="white"/>
<path d="M27.9619 117.609H15.9244C15.7752 117.609 15.6321 117.666 15.5267 117.768C15.4212 117.87 15.3619 118.008 15.3619 118.152V123.834C15.3619 123.978 15.4212 124.116 15.5267 124.218C15.6321 124.32 15.7752 124.377 15.9244 124.377H20.6191V131.435C20.6191 131.435 19.5648 131.783 16.6478 131.783C13.2098 131.783 8.40489 130.571 8.40489 120.372C8.40489 110.172 13.4089 108.828 18.1068 108.828C22.1726 108.828 23.9232 109.519 25.0392 109.852C25.3879 109.954 25.7141 109.618 25.7141 109.318L27.0562 103.829C27.0585 103.746 27.04 103.665 27.0022 103.591C26.9647 103.517 26.9092 103.454 26.8402 103.405C26.3868 103.092 23.6261 101.603 16.65 101.603C8.61303 101.603 0.369019 104.901 0.369019 120.769C0.369019 136.635 9.80776 138.999 17.7616 138.999C24.3473 138.999 28.3421 136.282 28.3421 136.282C28.5064 136.195 28.5244 135.972 28.5244 135.869V118.151C28.5244 118.007 28.4652 117.869 28.3596 117.767C28.2542 117.665 28.111 117.608 27.9619 117.608V117.609ZM89.4442 102.958H82.6651C82.591 102.958 82.5178 102.972 82.4496 103C82.3814 103.028 82.3195 103.068 82.2676 103.119C82.2154 103.169 82.1743 103.23 82.1464 103.296C82.1184 103.362 82.1044 103.433 82.1047 103.504L82.1071 116.149H71.5411V103.504C71.5414 103.433 71.5274 103.362 71.4994 103.296C71.4717 103.23 71.4305 103.17 71.3786 103.119C71.3268 103.068 71.2649 103.028 71.1969 103C71.1288 102.973 71.0558 102.958 70.9819 102.958H64.2038C64.1297 102.958 64.0567 102.972 63.9885 103C63.9202 103.028 63.8584 103.068 63.8062 103.119C63.7543 103.169 63.7132 103.23 63.6852 103.296C63.6573 103.362 63.643 103.433 63.6436 103.504V137.744C63.6436 138.044 63.8956 138.29 64.2038 138.29H70.9819C71.0558 138.289 71.129 138.275 71.1972 138.247C71.2653 138.219 71.3271 138.179 71.3791 138.128C71.431 138.077 71.472 138.017 71.4998 137.951C71.5275 137.885 71.5416 137.814 71.5411 137.743V123.098H82.1071L82.0891 137.743C82.0891 138.044 82.3411 138.29 82.6516 138.29H89.4442C89.5183 138.289 89.5913 138.275 89.6596 138.247C89.7276 138.219 89.7895 138.179 89.8414 138.128C89.8934 138.077 89.9344 138.017 89.9621 137.951C89.9901 137.885 90.004 137.814 90.0034 137.743V103.503C90.0034 103.201 89.7559 102.958 89.4442 102.958ZM36.3825 103.736C33.9705 103.736 32.0131 105.64 32.0131 107.997C32.0131 110.35 33.9705 112.259 36.3825 112.259C38.7967 112.259 40.7532 110.35 40.7532 107.997C40.7532 105.64 38.7957 103.736 36.3825 103.736ZM39.708 114.17H32.9513C32.6407 114.17 32.364 114.478 32.364 114.778V137.422C32.364 138.088 32.7938 138.285 33.3496 138.285H39.4358C40.1052 138.285 40.2682 137.968 40.2682 137.411V130.52V114.716C40.2686 114.645 40.2544 114.574 40.2262 114.508C40.1983 114.442 40.1572 114.382 40.105 114.332C40.0531 114.281 39.9912 114.241 39.9232 114.213C39.8549 114.186 39.7819 114.171 39.708 114.171V114.17ZM115.765 114.221H109.037C108.963 114.222 108.89 114.236 108.822 114.264C108.754 114.292 108.693 114.332 108.641 114.383C108.589 114.434 108.548 114.494 108.52 114.56C108.493 114.626 108.479 114.697 108.479 114.768V131.557C108.479 131.557 106.769 132.762 104.345 132.762C101.92 132.762 101.277 131.701 101.277 129.409V114.768C101.278 114.697 101.264 114.626 101.236 114.56C101.208 114.494 101.167 114.434 101.115 114.383C101.063 114.332 101.001 114.291 100.933 114.264C100.865 114.236 100.792 114.221 100.718 114.221H93.8914C93.742 114.222 93.5992 114.28 93.4942 114.383C93.3892 114.486 93.3305 114.624 93.3312 114.768V130.517C93.3312 137.326 97.2631 138.991 102.671 138.991C107.108 138.991 110.685 136.624 110.685 136.624C110.685 136.624 110.854 137.873 110.933 138.019C111.012 138.167 111.211 138.316 111.428 138.316L115.77 138.297C115.845 138.297 115.918 138.283 115.986 138.255C116.055 138.227 116.117 138.187 116.169 138.136C116.221 138.085 116.263 138.025 116.291 137.959C116.319 137.893 116.333 137.822 116.333 137.75L116.33 114.765C116.329 114.621 116.27 114.483 116.164 114.381C116.059 114.279 115.916 114.221 115.767 114.22L115.765 114.221ZM134.15 113.452C130.329 113.452 127.73 115.097 127.73 115.097V103.503C127.731 103.432 127.717 103.361 127.689 103.295C127.661 103.229 127.62 103.169 127.568 103.118C127.516 103.067 127.454 103.027 127.386 102.999C127.318 102.972 127.245 102.957 127.171 102.957H120.375C120.301 102.957 120.227 102.971 120.159 102.998C120.091 103.026 120.028 103.066 119.976 103.117C119.924 103.168 119.882 103.228 119.854 103.294C119.826 103.36 119.812 103.431 119.812 103.503V137.743C119.812 137.814 119.826 137.885 119.854 137.951C119.882 138.018 119.924 138.078 119.976 138.129C120.028 138.179 120.091 138.22 120.159 138.247C120.227 138.275 120.301 138.289 120.375 138.289H125.091C125.305 138.289 125.464 138.183 125.583 137.998C125.698 137.813 125.868 136.419 125.868 136.419C125.868 136.419 128.647 138.96 133.91 138.96C140.086 138.96 143.63 135.937 143.63 125.383C143.63 114.83 137.971 113.451 134.148 113.451L134.15 113.452ZM131.494 132.743C129.162 132.674 127.58 131.653 127.58 131.653V120.81C127.58 120.81 129.141 119.886 131.056 119.719C133.478 119.51 135.812 120.216 135.812 125.794C135.812 131.676 134.76 132.837 131.496 132.742L131.494 132.743ZM59.8444 132.615C59.5485 132.615 58.7902 132.731 58.0106 132.731C55.5132 132.731 54.666 131.61 54.666 130.159V120.532H59.7511C59.8253 120.532 59.8989 120.517 59.9673 120.49C60.0358 120.462 60.0981 120.422 60.1504 120.371C60.2026 120.32 60.244 120.26 60.2721 120.193C60.3 120.127 60.3141 120.056 60.3136 119.984V114.711C60.3139 114.639 60.2995 114.568 60.2714 114.502C60.2433 114.436 60.2018 114.376 60.1495 114.326C60.0974 114.275 60.0351 114.235 59.9667 114.207C59.8983 114.18 59.8252 114.166 59.7511 114.166H54.666L54.6581 107.683C54.6581 107.436 54.5277 107.313 54.233 107.313H47.303C47.0352 107.313 46.89 107.428 46.89 107.677V114.377C46.89 114.377 43.4172 115.186 43.1832 115.252C43.0663 115.284 42.9636 115.353 42.8906 115.447C42.8176 115.541 42.7781 115.655 42.7781 115.773V119.983C42.7778 120.054 42.7918 120.125 42.8196 120.191C42.8476 120.257 42.8885 120.317 42.9405 120.368C42.9924 120.419 43.0541 120.459 43.1224 120.487C43.1904 120.514 43.2634 120.529 43.3373 120.529H46.89V130.659C46.89 138.185 52.3576 138.923 56.0476 138.923C57.7317 138.923 59.7487 138.402 60.0818 138.282C60.2842 138.209 60.4001 138.008 60.4001 137.79L60.4046 133.159C60.4024 133.015 60.3424 132.878 60.2374 132.776C60.1325 132.675 59.9908 132.616 59.8421 132.614L59.8444 132.615Z" fill="white"/>
</svg>
