<svg width="154" height="143" viewBox="0 0 154 143" fill="none" xmlns="http://www.w3.org/2000/svg">
<path d="M139.563 17.875H14.4375C10.6084 17.875 6.9362 19.2874 4.22864 21.8015C1.52109 24.3158 0 27.7257 0 31.2812V111.719C0 115.274 1.52109 118.684 4.22864 121.198C6.9362 123.713 10.6084 125.125 14.4375 125.125H139.563C143.392 125.125 147.064 123.713 149.771 121.198C152.479 118.684 154 115.274 154 111.719V31.2812C154 27.7257 152.479 24.3158 149.771 21.8015C147.064 19.2874 143.392 17.875 139.563 17.875ZM122.565 26.8125L77 60.2209L31.4353 26.8125H122.565ZM19.25 116.187V41.5236L77 82.7702L134.75 41.5147V116.187H19.25Z" fill="white"/>
</svg>
