<svg width="239" height="68" viewBox="0 0 239 68" fill="none" xmlns="http://www.w3.org/2000/svg">
<path d="M176.076 4.87115C176.076 2.1823 178.159 0 180.725 0H234.317C236.885 0 238.966 2.1823 238.966 4.87115V63.1297C238.966 65.8194 236.885 68 234.317 68H180.725C178.159 68 176.076 65.8194 176.076 63.1306V4.87027V4.87115Z" fill="#006699"/>
<path d="M0.0328979 56.9601H26.2781V47.7011H9.53246V12.3803H0.0328979V56.9601ZM39.5658 56.9601V26.2544H30.0671V56.9601H39.5658ZM34.8173 22.0629C38.1291 22.0629 40.1908 19.7049 40.1908 16.7565C40.1294 13.7439 38.1291 11.4528 34.8804 11.4528C31.6309 11.4528 29.506 13.7448 29.506 16.7565C29.506 19.7049 31.5677 22.0629 34.7551 22.0629H34.8173ZM43.9757 56.9601H53.4745V39.812C53.4745 38.8943 53.5359 37.9767 53.7874 37.323C54.473 35.4894 56.0358 33.5898 58.6604 33.5898C62.0983 33.5898 63.4737 36.4061 63.4737 40.5317V56.9592H72.9707V39.3536C72.9707 29.9217 68.2844 25.5331 62.0344 25.5331C56.9108 25.5331 54.6606 28.6107 53.4104 30.7073H53.4745V26.2544H43.9757C44.101 29.136 43.9757 56.9601 43.9757 56.9601ZM86.3714 12.3803H76.8726V56.9601H86.3714V47.0045L88.7452 43.7931L96.1822 56.9601H107.867L95.3705 37.899L106.305 24.9319H94.8708C94.8708 24.9319 87.0594 36.5327 86.3714 37.9098V12.3803Z" fill="white"/>
<path d="M133.268 44.1517C133.393 43.3632 133.581 41.8507 133.581 40.1402C133.581 32.203 129.831 24.1444 119.958 24.1444C109.397 24.1444 104.522 33.1189 104.522 41.2585C104.522 51.3255 110.459 57.612 120.832 57.612C124.957 57.612 128.768 56.9592 131.893 55.583L130.643 48.8427C128.08 49.756 125.456 50.2134 122.207 50.2134C117.771 50.2134 113.897 48.2559 113.584 44.0857L133.268 44.1498V44.1517ZM113.522 37.2471C113.772 34.6269 115.398 30.7608 119.459 30.7608C123.77 30.7608 124.771 34.8882 124.771 37.2471H113.523H113.522ZM157.026 12.3803V27.8126H156.901C155.526 25.6525 152.651 24.2113 148.842 24.2113C141.529 24.2113 135.093 30.4987 135.154 41.2398C135.154 51.1963 140.967 57.6807 148.215 57.6807C152.153 57.6807 155.901 55.8453 157.777 52.3084H157.963L158.339 56.9601H166.775C166.65 54.7983 166.524 51.0651 166.524 47.3971V12.3794H157.026L157.026 12.3803ZM157.026 42.747C157.026 43.5318 156.964 44.3193 156.838 44.9721C156.278 47.7904 154.027 49.7532 151.278 49.7532C147.342 49.7532 144.779 46.3483 144.779 40.9777C144.779 35.9352 146.967 31.8738 151.341 31.8738C154.277 31.8738 156.339 34.0347 156.902 36.7193C157.026 37.3105 157.026 37.9659 157.026 38.5545V42.7461V42.747Z" fill="white"/>
<path d="M195.14 56.9226V26.2169H185.642V56.9226H195.142H195.14ZM190.393 22.0254C193.704 22.0254 195.767 19.6674 195.767 16.7209C195.705 13.7074 193.704 11.4154 190.456 11.4154C187.205 11.4154 185.082 13.7074 185.082 16.7209C185.082 19.6674 187.142 22.0254 190.331 22.0254H190.393ZM200.398 56.9226H209.897V39.7772C209.897 38.8605 209.958 37.9418 210.209 37.2873C210.895 35.4528 212.459 33.5541 215.083 33.5541C218.519 33.5541 219.894 36.3695 219.894 40.4979V56.9226H229.392V39.3171C229.392 29.886 224.706 25.4972 218.458 25.4972C213.333 25.4972 211.083 28.5742 209.833 30.6698H209.897V26.2179H200.398C200.523 29.0985 200.398 56.9235 200.398 56.9235V56.9226Z" fill="white"/>
</svg>
